<svg id="Fläche_1" data-name="Fläche 1" xmlns="http://www.w3.org/2000/svg" xmlns:xlink="http://www.w3.org/1999/xlink" viewBox="0 0 614.66667 336"><defs><style>.cls-1,.cls-5{fill:none;}.cls-2,.cls-3,.cls-6{fill:#9d9d9c;}.cls-2{stroke:#878787;stroke-width:3px;}.cls-2,.cls-5{stroke-miterlimit:10;}.cls-4{clip-path:url(#clip-path);}.cls-5{stroke:#9d9d9c;stroke-linecap:round;stroke-width:2px;}.cls-6{font-size:36px;font-family:aArbeiBerry, a Arbei Berry;}.cls-7{letter-spacing:-0.00195em;}.cls-8{letter-spacing:-0.07227em;}</style><clipPath id="clip-path"><path class="cls-1" d="M435.52466,203.00394a154.043,154.043,0,0,1-300.46673-.00041"/></clipPath></defs><line class="cls-2" x1="48.04134" y1="202.00214" x2="566.62467" y2="202.00214"/><path class="cls-3" d="M135.05793,201.00341a154.00007,154.00007,0,1,1,300.46673.0004"/><g class="cls-4"><line class="cls-5" x1="-14.04199" y1="289.66673" x2="584.62467" y2="289.66673"/><line class="cls-5" x1="-14.04199" y1="295.66673" x2="584.62467" y2="295.66673"/><line class="cls-5" x1="-14.04199" y1="301.66673" x2="584.62467" y2="301.66673"/><line class="cls-5" x1="-14.04199" y1="307.66673" x2="584.62467" y2="307.66673"/><line class="cls-5" x1="-14.04199" y1="313.66673" x2="584.62467" y2="313.66673"/><line class="cls-5" x1="-14.04199" y1="319.66673" x2="584.62467" y2="319.66673"/><line class="cls-5" x1="-14.04199" y1="325.66673" x2="584.62467" y2="325.66673"/><line class="cls-5" x1="-14.04199" y1="331.66673" x2="584.62467" y2="331.66673"/><line class="cls-5" x1="-14.04199" y1="283.66673" x2="584.62467" y2="283.66673"/><line class="cls-5" x1="-14.04199" y1="247.66673" x2="584.62467" y2="247.66673"/><line class="cls-5" x1="-14.04199" y1="253.66673" x2="584.62467" y2="253.66673"/><line class="cls-5" x1="-14.04199" y1="259.66673" x2="584.62467" y2="259.66673"/><line class="cls-5" x1="-14.04199" y1="265.66673" x2="584.62467" y2="265.66673"/><line class="cls-5" x1="-14.04199" y1="271.66673" x2="584.62467" y2="271.66673"/><line class="cls-5" x1="-14.04199" y1="277.66673" x2="584.62467" y2="277.66673"/><line class="cls-5" x1="-14.04199" y1="241.66673" x2="584.62467" y2="241.66673"/><line class="cls-5" x1="-14.04199" y1="169.66673" x2="584.62467" y2="169.66673"/><line class="cls-5" x1="-14.04199" y1="175.66673" x2="584.62467" y2="175.66673"/><line class="cls-5" x1="-14.04199" y1="181.66673" x2="584.62467" y2="181.66673"/><line class="cls-5" x1="-14.04199" y1="187.66673" x2="584.62467" y2="187.66673"/><line class="cls-5" x1="-14.04199" y1="193.66673" x2="584.62467" y2="193.66673"/><line class="cls-5" x1="-14.04199" y1="199.66673" x2="584.62467" y2="199.66673"/><line class="cls-5" x1="-14.04199" y1="205.66673" x2="584.62467" y2="205.66673"/><line class="cls-5" x1="-14.04199" y1="211.66673" x2="584.62467" y2="211.66673"/><line class="cls-5" x1="-14.04199" y1="217.66673" x2="584.62467" y2="217.66673"/><line class="cls-5" x1="-14.04199" y1="223.66673" x2="584.62467" y2="223.66673"/><line class="cls-5" x1="-14.04199" y1="229.66673" x2="584.62467" y2="229.66673"/><line class="cls-5" x1="-14.04199" y1="235.66673" x2="584.62467" y2="235.66673"/><line class="cls-5" x1="-14.04199" y1="163.66673" x2="584.62467" y2="163.66673"/></g><text class="cls-6" transform="translate(48.04134 186.6667)"><tspan class="cls-7">D</tspan><tspan class="cls-8" x="19.01953" y="0">A</tspan><tspan x="34.55859" y="0">Y</tspan></text><text class="cls-6" transform="translate(470.47269 186.77716)">DREAM</text></svg>